<svg data-v-70b83f88="" version="1.0" xmlns="http://www.w3.org/2000/svg" xmlns:xlink="http://www.w3.org/1999/xlink" width="100%" height="100%" viewBox="0 0 340.000000 250.000000" preserveAspectRatio="xMidYMid meet" color-interpolation-filters="sRGB" style="margin: auto;">   <g data-v-70b83f88="" fill="#65483c" class="newinitialsvg-g newinitialsvg" transform="translate(19.832114577293396,102.60340690612793)"><g class="tp-name" opacity="1" transform="matrix(1,0,0,1,0,0)"><g transform="translate(0, 0)"><g data-gra="path-name" fill="#65483c" transform="translate(0,6)"><g transform="scale(1)"><path d="M20.00-14.36L20.00-14.36Q20.67-14.36 20.97-14.66Q21.27-14.96 21.90-15.93L21.90-15.93L26.45-22.87Q26.67-23.24 26.95-23.37Q27.23-23.50 27.53-23.50L27.53-23.50L28.17-23.50Q28.69-23.50 28.93-23.22Q29.17-22.94 29.17-22.35L29.17-22.35L29.17-3.36L28.80-3.36L28.80-22.35Q28.80-22.65 28.67-22.89Q28.54-23.13 28.17-23.13L28.17-23.13L27.61-23.13Q27.35-23.13 27.16-23.06Q26.97-22.98 26.75-22.61L26.75-22.61L22.20-15.74Q21.53-14.74 21.17-14.36Q20.82-13.99 20.00-13.99L20.00-13.99Q19.18-13.99 18.82-14.36Q18.47-14.74 17.80-15.74L17.80-15.74L13.24-22.61Q13.02-22.98 12.82-23.06Q12.61-23.13 12.35-23.13L12.35-23.13L11.79-23.13Q11.42-23.13 11.30-22.89Q11.19-22.65 11.19-22.35L11.19-22.35L11.19-3.36L10.82-3.36L10.82-22.35Q10.82-22.94 11.06-23.22Q11.30-23.50 11.79-23.50L11.79-23.50L12.42-23.50Q12.72-23.50 13.02-23.37Q13.32-23.24 13.54-22.87L13.54-22.87L18.09-15.93Q18.73-14.96 19.03-14.66Q19.33-14.36 20.00-14.36ZM8.21 0L13.77 0Q14.48 0 14.79-0.32Q15.11-0.63 15.11-1.34L15.11-1.34L15.11-14.48L17.31-10.41Q17.65-9.77 18.11-9.49Q18.58-9.21 19.29-9.21L19.29-9.21L20.78-9.21Q21.49-9.21 21.96-9.49Q22.42-9.77 22.76-10.41L22.76-10.41L24.96-14.48L24.96-1.34Q24.96-0.63 25.28-0.32Q25.59 0 26.30 0L26.30 0L32.05 0Q32.76 0 33.07-0.32Q33.39-0.63 33.39-1.34L33.39-1.34L33.39-25.52Q33.39-26.23 33.07-26.54Q32.76-26.86 32.05-26.86L32.05-26.86L26.00-26.86Q25.41-26.86 25.01-26.60Q24.62-26.34 24.29-25.74L24.29-25.74L20.97-19.66Q20.78-19.33 20.65-19.18Q20.52-19.03 20.30-19.03L20.30-19.03L19.96-19.03Q19.74-19.03 19.61-19.18Q19.47-19.33 19.29-19.66L19.29-19.66L15.93-25.74Q15.59-26.34 15.20-26.60Q14.81-26.86 14.21-26.86L14.21-26.86L8.21-26.86Q7.50-26.86 7.18-26.54Q6.86-26.23 6.86-25.52L6.86-25.52L6.86-1.34Q6.86-0.63 7.18-0.32Q7.50 0 8.21 0L8.21 0ZM14.96 0.04L14.96 0.04L10.11 4.07Q9.96 4.22 9.64 4.33Q9.33 4.44 8.95 4.44L8.95 4.44L3.39 4.44Q2.50 4.44 2.09 4.03Q1.68 3.62 1.68 2.72L1.68 2.72L1.68-21.45Q1.68-21.94 1.81-22.27Q1.94-22.61 2.20-22.83L2.20-22.83L7.01-26.90Q7.20-27.05 7.52-27.14Q7.83-27.23 8.21-27.23L8.21-27.23L14.21-27.23Q14.92-27.23 15.39-26.94Q15.86-26.64 16.27-25.93L16.27-25.93L18.80-21.27L19.14-21.86Q19.29-22.12 19.46-22.37Q19.62-22.61 19.81-22.76L19.81-22.76L24.62-26.79Q24.92-27.01 25.24-27.12Q25.56-27.23 26.00-27.23L26.00-27.23L32.05-27.23Q32.94-27.23 33.35-26.82Q33.76-26.41 33.76-25.52L33.76-25.52L33.76-1.34Q33.76-0.86 33.63-0.52Q33.50-0.19 33.24 0.04L33.24 0.04L28.39 4.07Q28.24 4.22 27.92 4.33Q27.61 4.44 27.23 4.44L27.23 4.44L21.49 4.44Q20.56 4.44 20.16 4.03Q19.77 3.62 19.77 2.72L19.77 2.72L19.77-7.13L17.57-5.30Q17.27-5.04 16.88-4.91Q16.49-4.78 15.97-4.78L15.97-4.78L15.48-4.78L15.48-1.34Q15.48-0.86 15.35-0.52Q15.22-0.19 14.96 0.04Z" transform="translate(-1.6788321167883207, 27.793998377939978)"></path></g></g></g><g transform="translate(36.08434712084346, 0)"><g data-gra="path-name" fill="#65483c" transform="translate(0,6)"><g transform="scale(1)"><path d="M27.76-1.38L22.94 2.65Q21.64 3.77 19.29 4.38Q16.94 5.00 13.24 5.00L13.24 5.00Q9.59 5.00 7.26 4.23Q4.92 3.47 3.60 2.20Q2.28 0.93 1.77-0.71Q1.27-2.35 1.27-4.10L1.27-4.10L1.27-15.71Q1.27-17.42 1.75-18.90Q2.24-20.37 3.51-21.41L3.51-21.41L8.36-25.44Q9.66-26.56 11.99-27.18Q14.33-27.79 18.06-27.79L18.06-27.79Q21.71-27.79 24.04-27.20Q26.38-26.60 27.70-25.54Q29.03-24.47 29.51-23.00Q30.00-21.53 30.00-19.77L30.00-19.77L30.00-7.05Q30.00-5.33 29.51-3.88Q29.03-2.42 27.76-1.38L27.76-1.38ZM29.62-7.05L29.62-7.05L29.62-19.77Q29.62-21.49 29.12-22.89Q28.61-24.29 27.33-25.29Q26.04-26.30 23.78-26.86Q21.53-27.42 18.06-27.42L18.06-27.42Q14.59-27.42 12.31-26.86Q10.04-26.30 8.75-25.29Q7.46-24.29 6.96-22.89Q6.45-21.49 6.45-19.77L6.45-19.77L6.45-7.05Q6.45-5.33 6.96-3.94Q7.46-2.54 8.75-1.55Q10.04-0.56 12.31 0Q14.59 0.56 18.06 0.56L18.06 0.56Q21.53 0.56 23.78 0Q26.04-0.56 27.33-1.55Q28.61-2.54 29.12-3.94Q29.62-5.33 29.62-7.05ZM25.56-18.91L25.56-7.91Q25.56-5.67 23.95-4.27Q22.35-2.87 17.98-2.87L17.98-2.87Q13.62-2.87 12.05-4.27Q10.48-5.67 10.48-7.91L10.48-7.91L10.48-18.91Q10.48-21.15 12.05-22.55Q13.62-23.95 17.98-23.95L17.98-23.95Q22.35-23.95 23.95-22.55Q25.56-21.15 25.56-18.91L25.56-18.91ZM10.86-18.91L10.86-7.91Q10.86-5.82 12.35-4.53Q13.84-3.25 17.98-3.25L17.98-3.25Q22.12-3.25 23.65-4.53Q25.18-5.82 25.18-7.91L25.18-7.91L25.18-18.91Q25.18-21.00 23.65-22.29Q22.12-23.58 17.98-23.58L17.98-23.58Q13.84-23.58 12.35-22.29Q10.86-21.00 10.86-18.91L10.86-18.91ZM14.92-8.39L14.92-8.39L14.92-18.43Q14.92-19.14 15.48-19.64Q16.04-20.15 18.06-20.15L18.06-20.15Q20.07-20.15 20.63-19.64Q21.19-19.14 21.19-18.43L21.19-18.43L21.19-8.39Q21.19-7.65 20.63-7.14Q20.07-6.64 18.06-6.64L18.06-6.64Q16.04-6.64 15.48-7.14Q14.92-7.65 14.92-8.39ZM15.30-15.45L15.30-8.39Q15.30-8.02 15.45-7.74Q15.59-7.46 16.00-7.27L16.00-7.27L16.00-14.36Q16.00-14.74 15.86-15.02Q15.71-15.30 15.30-15.45L15.30-15.45Z" transform="translate(-1.268450932684509, 27.793998377939978)"></path></g></g></g><g class="tp-graph" transform="translate(68.81103000811028, 0)" mask="url(#1ae15b6e-0de0-4a3d-a9b0-3a61ba3d07a8)"><rect data-gra="graph-name" fill="#65483c" x="0" y="0" width="44.79318734793187" height="44.79318734793187" rx="22.396593673965935"></rect> <g data-gra="path-name" transform="translate(8.016594513199333,6)"><g transform="scale(1)" fill="#65483c"><path d="M17.94 4.44L8.24 4.44Q7.39 4.44 6.86 4.12Q6.34 3.81 6.01 2.98L6.01 2.98L2.35-6.16Q2.01-7.01 1.77-7.63Q1.53-8.24 1.38-8.82Q1.23-9.40 1.18-10.05Q1.12-10.71 1.12-11.60L1.12-11.60L1.12-21.45Q1.12-21.94 1.25-22.27Q1.38-22.61 1.64-22.83L1.64-22.83L6.45-26.90Q6.64-27.05 6.96-27.14Q7.27-27.23 7.65-27.23L7.65-27.23L13.58-27.23Q14.48-27.23 14.94-26.81Q15.41-26.38 15.41-25.52L15.41-25.52L15.41-15.22Q15.41-14.85 15.48-14.51Q15.56-14.18 15.67-13.80L15.67-13.80L15.78-13.54L15.78-21.45Q15.78-21.94 15.91-22.27Q16.04-22.61 16.30-22.83L16.30-22.83L21.12-26.90Q21.30-27.05 21.62-27.14Q21.94-27.23 22.31-27.23L22.31-27.23L28.17-27.23Q29.10-27.23 29.49-26.82Q29.88-26.41 29.88-25.52L29.88-25.52L29.88-15.67Q29.88-14.77 29.83-14.12Q29.77-13.47 29.62-12.89Q29.47-12.31 29.23-11.70Q28.99-11.08 28.65-10.22L28.65-10.22L25.00-1.08Q24.88-0.75 24.70-0.48Q24.51-0.22 24.32-0.07L24.32-0.07L19.51 3.92Q19.21 4.18 18.82 4.31Q18.43 4.44 17.94 4.44L17.94 4.44ZM13.06 0L22.76 0Q23.47 0 23.93-0.26Q24.40-0.52 24.66-1.23L24.66-1.23L28.32-10.37Q28.65-11.19 28.88-11.81Q29.10-12.42 29.25-12.98Q29.40-13.54 29.45-14.16Q29.51-14.77 29.51-15.67L29.51-15.67L29.51-25.52Q29.51-26.23 29.19-26.54Q28.88-26.86 28.17-26.86L28.17-26.86L22.31-26.86Q21.60-26.86 21.28-26.54Q20.97-26.23 20.97-25.52L20.97-25.52L20.97-15.26Q20.97-14.89 20.89-14.51Q20.82-14.14 20.67-13.73L20.67-13.73L18.91-8.47Q18.80-8.10 18.65-7.97Q18.50-7.83 18.21-7.83L18.21-7.83L17.80-7.83Q17.50-7.83 17.35-7.97Q17.20-8.10 17.09-8.47L17.09-8.47L15.33-13.69Q15.18-14.10 15.11-14.48Q15.03-14.85 15.03-15.22L15.03-15.22L15.03-25.52Q15.03-26.23 14.66-26.54Q14.29-26.86 13.58-26.86L13.58-26.86L7.65-26.86Q6.94-26.86 6.62-26.54Q6.30-26.23 6.30-25.52L6.30-25.52L6.30-15.67Q6.30-14.77 6.36-14.16Q6.42-13.54 6.57-12.98Q6.72-12.42 6.94-11.81Q7.16-11.19 7.50-10.37L7.50-10.37L11.15-1.23Q11.42-0.52 11.88-0.26Q12.35 0 13.06 0L13.06 0ZM10.52-15.45L10.52-23.50L10.89-23.50L10.89-15.45Q10.89-14.48 11.04-13.60Q11.19-12.72 11.49-11.98L11.49-11.98L13.95-6.01Q14.33-5.04 14.79-4.38Q15.26-3.73 16.30-3.73L16.30-3.73L19.59-3.73Q20.63-3.73 21.10-4.38Q21.56-5.04 21.94-6.01L21.94-6.01L24.40-11.98Q24.70-12.72 24.85-13.60Q25.00-14.48 25.00-15.45L25.00-15.45L25.00-23.50L25.37-23.50L25.37-15.45Q25.37-14.40 25.24-13.52Q25.11-12.65 24.77-11.83L24.77-11.83L22.31-5.86Q21.86-4.78 21.30-4.07Q20.74-3.36 19.59-3.36L19.59-3.36L16.30-3.36Q15.15-3.36 14.59-4.07Q14.03-4.78 13.58-5.86L13.58-5.86L11.12-11.83Q10.78-12.65 10.65-13.52Q10.52-14.40 10.52-15.45L10.52-15.45Z" transform="translate(-1.1192214111922139, 27.793998377939978)"></path></g></g></g><g transform="translate(117.60421735604214, 0)"><g data-gra="path-name" fill="#65483c" transform="translate(0,6)"><g transform="scale(1)"><path d="M18.69 4.44L18.69 4.44L2.80 4.44Q1.90 4.44 1.49 4.03Q1.08 3.62 1.08 2.72L1.08 2.72L1.08-1.72Q1.08-2.20 1.21-2.54Q1.34-2.87 1.60-3.10L1.60-3.10L6.12-6.90L6.12-15.22L2.80-15.22Q1.90-15.22 1.49-15.63Q1.08-16.04 1.08-16.94L1.08-16.94L1.08-21.45Q1.08-21.94 1.21-22.27Q1.34-22.61 1.60-22.83L1.60-22.83L6.42-26.90Q6.60-27.05 6.92-27.14Q7.24-27.23 7.61-27.23L7.61-27.23L23.50-27.23Q24.40-27.23 24.81-26.82Q25.22-26.41 25.22-25.52L25.22-25.52L25.22-21.00Q25.22-20.52 25.09-20.18Q24.96-19.85 24.70-19.62L24.70-19.62L20.26-15.89L20.26-7.50L23.50-7.50Q24.40-7.50 24.81-7.09Q25.22-6.68 25.22-5.78L25.22-5.78L25.22-1.34Q25.22-0.86 25.09-0.52Q24.96-0.19 24.70 0.04L24.70 0.04L19.85 4.07Q19.70 4.22 19.38 4.33Q19.06 4.44 18.69 4.44ZM7.61 0L7.61 0L23.50 0Q24.21 0 24.53-0.32Q24.85-0.63 24.85-1.34L24.85-1.34L24.85-5.78Q24.85-6.49 24.53-6.81Q24.21-7.13 23.50-7.13L23.50-7.13L19.88-7.13L19.88-19.66L23.50-19.66Q24.21-19.66 24.53-19.98Q24.85-20.30 24.85-21.00L24.85-21.00L24.85-25.52Q24.85-26.23 24.53-26.54Q24.21-26.86 23.50-26.86L23.50-26.86L7.61-26.86Q6.90-26.86 6.58-26.54Q6.27-26.23 6.27-25.52L6.27-25.52L6.27-21.00Q6.27-20.30 6.58-19.98Q6.90-19.66 7.61-19.66L7.61-19.66L11.30-19.66L11.30-7.13L7.61-7.13Q6.90-7.13 6.58-6.81Q6.27-6.49 6.27-5.78L6.27-5.78L6.27-1.34Q6.27-0.63 6.58-0.32Q6.90 0 7.61 0ZM21.49-3.73L21.49-3.36L9.63-3.36L9.63-3.73L15.41-3.73L15.41-23.13L9.63-23.13L9.63-23.50L21.49-23.50L21.49-23.13L15.78-23.13L15.78-3.73L21.49-3.73Z" transform="translate(-1.08191403081914, 27.793998377939978)"></path></g></g></g><g transform="translate(145.74209245742088, 0)"><g data-gra="path-name" fill="#65483c" transform="translate(0,6)"><g transform="scale(1)"><path d="M11.79-23.21L11.79-23.21L25.52-7.76L25.52-23.50L25.89-23.50L25.89-3.36L25.52-3.36L25.52-7.20L11.42-23.02Q11.38-23.06 11.32-23.09Q11.27-23.13 11.23-23.13L11.23-23.13Q11.19-23.13 11.17-23.09Q11.15-23.06 11.15-23.02L11.15-23.02L11.15-3.36L10.78-3.36L10.78-23.09Q10.78-23.32 10.93-23.43Q11.08-23.54 11.23-23.54L11.23-23.54Q11.38-23.54 11.49-23.47Q11.60-23.39 11.79-23.21ZM8.21 0L13.80 0Q14.51 0 14.83-0.32Q15.15-0.63 15.15-1.34L15.15-1.34L15.15-13.65L21.53-5.93L21.53-1.34Q21.53-0.63 21.84-0.32Q22.16 0 22.87 0L22.87 0L28.47 0Q29.17 0 29.49-0.32Q29.81-0.63 29.81-1.34L29.81-1.34L29.81-25.52Q29.81-26.23 29.49-26.54Q29.17-26.86 28.47-26.86L28.47-26.86L22.87-26.86Q22.16-26.86 21.84-26.54Q21.53-26.23 21.53-25.52L21.53-25.52L21.53-17.57L14.29-25.85Q13.80-26.41 13.30-26.64Q12.80-26.86 12.09-26.86L12.09-26.86L8.21-26.86Q7.50-26.86 7.18-26.54Q6.86-26.23 6.86-25.52L6.86-25.52L6.86-1.34Q6.86-0.63 7.18-0.32Q7.50 0 8.21 0L8.21 0ZM15.00 0.04L15.00 0.04L10.15 4.07Q10.00 4.22 9.68 4.33Q9.36 4.44 8.99 4.44L8.99 4.44L3.39 4.44Q2.50 4.44 2.09 4.03Q1.68 3.62 1.68 2.72L1.68 2.72L1.68-21.45Q1.68-21.94 1.81-22.27Q1.94-22.61 2.20-22.83L2.20-22.83L7.01-26.90Q7.20-27.05 7.52-27.14Q7.83-27.23 8.21-27.23L8.21-27.23L12.09-27.23Q12.91-27.23 13.47-26.97Q14.03-26.71 14.59-26.12L14.59-26.12L17.16-23.13L21.68-26.90Q21.86-27.05 22.18-27.14Q22.50-27.23 22.87-27.23L22.87-27.23L28.47-27.23Q29.36-27.23 29.77-26.82Q30.18-26.41 30.18-25.52L30.18-25.52L30.18-1.34Q30.18-0.86 30.05-0.52Q29.92-0.19 29.66 0.04L29.66 0.04L24.81 4.07Q24.66 4.22 24.34 4.33Q24.03 4.44 23.65 4.44L23.65 4.44L18.06 4.44Q17.16 4.44 16.75 4.03Q16.34 3.62 16.34 2.72L16.34 2.72L16.34-1.72L15.52-2.72L15.52-1.34Q15.52-0.86 15.39-0.52Q15.26-0.19 15.00 0.04Z" transform="translate(-1.6788321167883207, 27.793998377939978)"></path></g></g></g><g transform="translate(178.24493106244927, 0)"><g data-gra="path-name" fill="#65483c" transform="translate(0,6)"><g transform="scale(1)"><path d="M14.74 4.44L14.74 4.44L8.69 4.44Q7.80 4.44 7.39 4.03Q6.98 3.62 6.98 2.72L6.98 2.72L6.98-15.22L1.87-15.22Q0.97-15.22 0.56-15.63Q0.15-16.04 0.15-16.94L0.15-16.94L0.15-21.45Q0.15-21.94 0.28-22.27Q0.41-22.61 0.67-22.83L0.67-22.83L5.48-26.90Q5.67-27.05 5.99-27.14Q6.30-27.23 6.68-27.23L6.68-27.23L26.38-27.23Q27.27-27.23 27.68-26.82Q28.09-26.41 28.09-25.52L28.09-25.52L28.09-21.00Q28.09-20.52 27.96-20.18Q27.83-19.85 27.57-19.62L27.57-19.62L22.72-15.59Q22.57-15.45 22.25-15.33Q21.94-15.22 21.56-15.22L21.56-15.22L21.27-15.22L21.27-1.34Q21.27-0.86 21.13-0.52Q21.00-0.19 20.74 0.04L20.74 0.04L15.89 4.07Q15.74 4.22 15.43 4.33Q15.11 4.44 14.74 4.44ZM13.51 0L19.55 0Q20.26 0 20.58-0.32Q20.89-0.63 20.89-1.34L20.89-1.34L20.89-19.66L26.38-19.66Q27.09-19.66 27.40-19.98Q27.72-20.30 27.72-21.00L27.72-21.00L27.72-25.52Q27.72-26.23 27.40-26.54Q27.09-26.86 26.38-26.86L26.38-26.86L6.68-26.86Q5.97-26.86 5.65-26.54Q5.33-26.23 5.33-25.52L5.33-25.52L5.33-21.00Q5.33-20.30 5.65-19.98Q5.97-19.66 6.68-19.66L6.68-19.66L12.16-19.66L12.16-1.34Q12.16-0.63 12.48-0.32Q12.80 0 13.51 0L13.51 0ZM16.71-3.36L16.34-3.36L16.34-23.13L8.69-23.13L8.69-23.50L24.36-23.50L24.36-23.13L16.71-23.13L16.71-3.36Z" transform="translate(-0.14922952149229518, 27.793998377939978)"></path></g></g></g><g transform="translate(210.18815896188153, 0)"><g data-gra="path-name" fill="#65483c" transform="translate(0,6)"><g transform="scale(1)"><path d="M10.63-11.30L10.63-11.30L10.63-10.15L25.18-10.15L25.18-11.30Q25.18-12.31 25.01-13.17Q24.85-14.03 24.59-14.77L24.59-14.77L22.01-20.85Q21.60-21.82 21.15-22.48Q20.71-23.13 19.66-23.13L19.66-23.13L16.00-23.13Q14.89-23.13 14.44-22.48Q13.99-21.82 13.62-20.89L13.62-20.89L11.23-14.77Q10.97-14.03 10.80-13.17Q10.63-12.31 10.63-11.30ZM14.85-13.36L16.60-19.03Q16.75-19.36 16.92-19.51Q17.09-19.66 17.31-19.66L17.31-19.66L18.24-19.66Q18.47-19.66 18.64-19.51Q18.80-19.36 18.95-19.03L18.95-19.03L20.71-13.36L14.85-13.36ZM25.56-3.36L25.18-3.36L25.18-9.77L10.63-9.77L10.63-3.36L10.26-3.36L10.26-11.30Q10.26-12.35 10.43-13.23Q10.60-14.10 10.89-14.92L10.89-14.92L13.28-21.04Q13.69-22.09 14.21-22.79Q14.74-23.50 16.00-23.50L16.00-23.50L19.66-23.50Q20.89-23.50 21.40-22.79Q21.90-22.09 22.35-21.00L22.35-21.00L24.92-14.92Q25.22-14.10 25.39-13.23Q25.56-12.35 25.56-11.30L25.56-11.30L25.56-3.36ZM14.48-1.34L14.48-1.34L14.48-6.57L21.08-6.57L21.08-1.34Q21.08-0.63 21.43-0.32Q21.79 0 22.53 0L22.53 0L28.17 0Q28.88 0 29.19-0.32Q29.51-0.63 29.51-1.34L29.51-1.34L29.51-11.19Q29.51-12.31 29.16-13.77Q28.80-15.22 28.06-17.16L28.06-17.16L24.81-25.63Q24.59-26.26 24.12-26.56Q23.65-26.86 22.94-26.86L22.94-26.86L12.91-26.86Q12.16-26.86 11.70-26.56Q11.23-26.26 11.01-25.63L11.01-25.63L7.76-17.16Q7.01-15.22 6.66-13.77Q6.30-12.31 6.30-11.19L6.30-11.19L6.30-1.34Q6.30-0.63 6.62-0.32Q6.94 0 7.65 0L7.65 0L13.13 0Q13.84 0 14.16-0.32Q14.48-0.63 14.48-1.34ZM14.33 0.04L9.48 4.07Q9.33 4.22 9.01 4.33Q8.69 4.44 8.32 4.44L8.32 4.44L2.84 4.44Q1.94 4.44 1.53 4.03Q1.12 3.62 1.12 2.72L1.12 2.72L1.12-7.13Q1.12-8.28 1.47-9.76Q1.83-11.23 2.61-13.24L2.61-13.24L5.82-21.68Q5.93-22.01 6.10-22.25Q6.27-22.50 6.45-22.68L6.45-22.68L6.49-22.72L11.27-26.71Q11.57-26.97 11.98-27.10Q12.39-27.23 12.91-27.23L12.91-27.23L22.94-27.23Q23.80-27.23 24.34-26.88Q24.88-26.53 25.15-25.78L25.15-25.78L28.39-17.31Q29.17-15.30 29.53-13.82Q29.88-12.35 29.88-11.19L29.88-11.19L29.88-1.34Q29.88-0.86 29.75-0.52Q29.62-0.19 29.36 0.04L29.36 0.04L24.51 4.07Q24.36 4.22 24.04 4.33Q23.73 4.44 23.35 4.44L23.35 4.44L17.72 4.44Q16.79 4.44 16.34 4.01Q15.89 3.58 15.89 2.72L15.89 2.72L15.89-2.13L14.85-2.13L14.85-1.34Q14.85-0.86 14.72-0.52Q14.59-0.19 14.33 0.04L14.33 0.04Z" transform="translate(-1.1192214111922139, 27.793998377939978)"></path></g></g></g><g transform="translate(242.9521492295214, 0)"><g data-gra="path-name" fill="#65483c" transform="translate(0,6)"><g transform="scale(1)"><path d="M22.57 4.44L22.57 4.44L10.82 4.44Q5.93 4.44 3.60 1.90Q1.27-0.63 1.27-4.66L1.27-4.66L1.27-15.18Q1.27-17.24 1.87-18.73Q2.46-20.22 3.62-21.23L3.62-21.23L8.43-25.29Q9.59-26.26 11.40-26.75Q13.21-27.23 15.63-27.23L15.63-27.23L24.96-27.23Q25.85-27.23 26.26-26.82Q26.67-26.41 26.67-25.52L26.67-25.52L26.67-21.00Q26.67-20.52 26.54-20.18Q26.41-19.85 26.15-19.62L26.15-19.62L21.30-15.59Q21.15-15.45 20.84-15.33Q20.52-15.22 20.15-15.22L20.15-15.22L15.30-15.22L15.30-9.85Q15.33-9.92 15.43-10.02Q15.52-10.11 15.59-10.18L15.59-10.18L20.41-14.25Q20.59-14.40 20.91-14.49Q21.23-14.59 21.60-14.59L21.60-14.59L27.38-14.59Q28.28-14.59 28.69-14.18Q29.10-13.77 29.10-12.87L29.10-12.87L29.10-1.34Q29.10-0.86 28.97-0.52Q28.84-0.19 28.58 0.04L28.58 0.04L23.73 4.07Q23.58 4.22 23.26 4.33Q22.94 4.44 22.57 4.44ZM15.63 0L27.38 0Q28.09 0 28.41-0.32Q28.73-0.63 28.73-1.34L28.73-1.34L28.73-12.87Q28.73-13.58 28.41-13.90Q28.09-14.21 27.38-14.21L27.38-14.21L21.60-14.21Q20.89-14.21 20.58-13.90Q20.26-13.58 20.26-12.87L20.26-12.87L20.26-7.05L16.64-7.05Q15.78-7.05 15.35-7.50Q14.92-7.95 14.92-8.88L14.92-8.88L14.92-17.80Q14.92-18.73 15.48-19.19Q16.04-19.66 17.20-19.66L17.20-19.66L24.96-19.66Q25.67-19.66 25.98-19.98Q26.30-20.30 26.30-21.00L26.30-21.00L26.30-25.52Q26.30-26.23 25.98-26.54Q25.67-26.86 24.96-26.86L24.96-26.86L15.63-26.86Q10.97-26.86 8.71-25.00Q6.45-23.13 6.45-19.25L6.45-19.25L6.45-7.61Q6.45-3.73 8.71-1.87Q10.97 0 15.63 0L15.63 0ZM24.66-3.36L17.24-3.36Q15.18-3.36 13.88-3.62Q12.57-3.88 11.83-4.46Q11.08-5.04 10.80-5.95Q10.52-6.86 10.52-8.17L10.52-8.17L10.52-18.62Q10.52-21.27 11.71-22.38Q12.91-23.50 16.49-23.50L16.49-23.50L22.94-23.50L22.94-23.13L16.49-23.13Q13.21-23.13 12.05-22.10Q10.89-21.08 10.89-18.62L10.89-18.62L10.89-8.17Q10.89-5.75 12.18-4.74Q13.47-3.73 17.24-3.73L17.24-3.73L24.29-3.73L24.29-10.86L24.66-10.86L24.66-3.36Z" transform="translate(-1.2684509326845095, 27.793998377939978)"></path></g></g></g><g transform="translate(274.7834549878345, 0)"><g data-gra="path-name" fill="#65483c" transform="translate(0,6)"><g transform="scale(1)"><path d="M20.71 4.44L20.71 4.44L3.39 4.44Q2.50 4.44 2.09 4.03Q1.68 3.62 1.68 2.72L1.68 2.72L1.68-21.45Q1.68-21.94 1.81-22.27Q1.94-22.61 2.20-22.83L2.20-22.83L7.01-26.90Q7.20-27.05 7.52-27.14Q7.83-27.23 8.21-27.23L8.21-27.23L25.52-27.23Q26.41-27.23 26.82-26.82Q27.23-26.41 27.23-25.52L27.23-25.52L27.23-21.15Q27.23-20.67 27.10-20.33Q26.97-20.00 26.71-19.77L26.71-19.77L23.50-17.12Q23.88-16.94 24.04-16.56Q24.21-16.19 24.21-15.59L24.21-15.59L24.21-11.60Q24.21-11.12 24.08-10.78Q23.95-10.45 23.69-10.22L23.69-10.22L20.37-7.42L25.52-7.42Q26.41-7.42 26.82-7.01Q27.23-6.60 27.23-5.71L27.23-5.71L27.23-1.34Q27.23-0.86 27.10-0.52Q26.97-0.19 26.71 0.04L26.71 0.04L21.86 4.07Q21.71 4.22 21.40 4.33Q21.08 4.44 20.71 4.44ZM8.21 0L25.52 0Q26.23 0 26.54-0.32Q26.86-0.63 26.86-1.34L26.86-1.34L26.86-5.71Q26.86-6.42 26.54-6.73Q26.23-7.05 25.52-7.05L25.52-7.05L15.22-7.05L15.22-10.26L22.50-10.26Q23.21-10.26 23.52-10.58Q23.84-10.89 23.84-11.60L23.84-11.60L23.84-15.59Q23.84-16.30 23.52-16.62Q23.21-16.94 22.50-16.94L22.50-16.94L15.22-16.94L15.22-19.81L25.52-19.81Q26.23-19.81 26.54-20.13Q26.86-20.44 26.86-21.15L26.86-21.15L26.86-25.52Q26.86-26.23 26.54-26.54Q26.23-26.86 25.52-26.86L25.52-26.86L8.21-26.86Q7.50-26.86 7.18-26.54Q6.86-26.23 6.86-25.52L6.86-25.52L6.86-1.34Q6.86-0.63 7.18-0.32Q7.50 0 8.21 0L8.21 0ZM11.30-3.73L23.50-3.73L23.50-3.36L10.93-3.36L10.93-23.50L23.50-23.50L23.50-23.13L11.30-23.13L11.30-13.77L20.48-13.77L20.48-13.39L11.30-13.39L11.30-3.73Z" transform="translate(-1.6788321167883207, 27.793998377939978)"></path></g></g></g></g> <!----></g><mask id="1ae15b6e-0de0-4a3d-a9b0-3a61ba3d07a8"><rect data-gra="graph-name" x="0" y="0" width="44.79318734793187" height="44.79318734793187" rx="22.396593673965935" fill="white"></rect> <g data-gra="path-name" transform="translate(8.016594513199333,6)" fill="black"><g transform="scale(1)"><path d="M17.94 4.44L8.24 4.44Q7.39 4.44 6.86 4.12Q6.34 3.81 6.01 2.98L6.01 2.98L2.35-6.16Q2.01-7.01 1.77-7.63Q1.53-8.24 1.38-8.82Q1.23-9.40 1.18-10.05Q1.12-10.71 1.12-11.60L1.12-11.60L1.12-21.45Q1.12-21.94 1.25-22.27Q1.38-22.61 1.64-22.83L1.64-22.83L6.45-26.90Q6.64-27.05 6.96-27.14Q7.27-27.23 7.65-27.23L7.65-27.23L13.58-27.23Q14.48-27.23 14.94-26.81Q15.41-26.38 15.41-25.52L15.41-25.52L15.41-15.22Q15.41-14.85 15.48-14.51Q15.56-14.18 15.67-13.80L15.67-13.80L15.78-13.54L15.78-21.45Q15.78-21.94 15.91-22.27Q16.04-22.61 16.30-22.83L16.30-22.83L21.12-26.90Q21.30-27.05 21.62-27.14Q21.94-27.23 22.31-27.23L22.31-27.23L28.17-27.23Q29.10-27.23 29.49-26.82Q29.88-26.41 29.88-25.52L29.88-25.52L29.88-15.67Q29.88-14.77 29.83-14.12Q29.77-13.47 29.62-12.89Q29.47-12.31 29.23-11.70Q28.99-11.08 28.65-10.22L28.65-10.22L25.00-1.08Q24.88-0.75 24.70-0.48Q24.51-0.22 24.32-0.07L24.32-0.07L19.51 3.92Q19.21 4.18 18.82 4.31Q18.43 4.44 17.94 4.44L17.94 4.44ZM13.06 0L22.76 0Q23.47 0 23.93-0.26Q24.40-0.52 24.66-1.23L24.66-1.23L28.32-10.37Q28.65-11.19 28.88-11.81Q29.10-12.42 29.25-12.98Q29.40-13.54 29.45-14.16Q29.51-14.77 29.51-15.67L29.51-15.67L29.51-25.52Q29.51-26.23 29.19-26.54Q28.88-26.86 28.17-26.86L28.17-26.86L22.31-26.86Q21.60-26.86 21.28-26.54Q20.97-26.23 20.97-25.52L20.97-25.52L20.97-15.26Q20.97-14.89 20.89-14.51Q20.82-14.14 20.67-13.73L20.67-13.73L18.91-8.47Q18.80-8.10 18.65-7.97Q18.50-7.83 18.21-7.83L18.21-7.83L17.80-7.83Q17.50-7.83 17.35-7.97Q17.20-8.10 17.09-8.47L17.09-8.47L15.33-13.69Q15.18-14.10 15.11-14.48Q15.03-14.85 15.03-15.22L15.03-15.22L15.03-25.52Q15.03-26.23 14.66-26.54Q14.29-26.86 13.58-26.86L13.58-26.86L7.65-26.86Q6.94-26.86 6.62-26.54Q6.30-26.23 6.30-25.52L6.30-25.52L6.30-15.67Q6.30-14.77 6.36-14.16Q6.42-13.54 6.57-12.98Q6.72-12.42 6.94-11.81Q7.16-11.19 7.50-10.37L7.50-10.37L11.15-1.23Q11.42-0.52 11.88-0.26Q12.35 0 13.06 0L13.06 0ZM10.52-15.45L10.52-23.50L10.89-23.50L10.89-15.45Q10.89-14.48 11.04-13.60Q11.19-12.72 11.49-11.98L11.49-11.98L13.95-6.01Q14.33-5.04 14.79-4.38Q15.26-3.73 16.30-3.73L16.30-3.73L19.59-3.73Q20.63-3.73 21.10-4.38Q21.56-5.04 21.94-6.01L21.94-6.01L24.40-11.98Q24.70-12.72 24.85-13.60Q25.00-14.48 25.00-15.45L25.00-15.45L25.00-23.50L25.37-23.50L25.37-15.45Q25.37-14.40 25.24-13.52Q25.11-12.65 24.77-11.83L24.77-11.83L22.31-5.86Q21.86-4.78 21.30-4.07Q20.74-3.36 19.59-3.36L19.59-3.36L16.30-3.36Q15.15-3.36 14.59-4.07Q14.03-4.78 13.58-5.86L13.58-5.86L11.12-11.83Q10.78-12.65 10.65-13.52Q10.52-14.40 10.52-15.45L10.52-15.45Z" transform="translate(-1.1192214111922139, 27.793998377939978)"></path></g></g></mask><defs v-gra="od"></defs></svg>